<?xml version="1.0" encoding="UTF-8"?>
<svg id="Layer_1" data-name="Layer 1" xmlns="http://www.w3.org/2000/svg" viewBox="0 0 229.93 232.79">
  <defs>
    <style>
      .cls-1 {
        fill: #ea4335;
      }

      .cls-1, .cls-2 {
        stroke: #fff;
        stroke-miterlimit: 10;
      }

      .cls-2 {
        fill: #f8bc2f;
      }

      .cls-3 {
        fill: #557dbc;
      }

      .cls-3, .cls-4, .cls-5 {
        stroke-width: 0px;
      }

      .cls-4 {
        fill: #34a852;
      }

      .cls-5 {
        fill: #fff;
      }
    </style>
  </defs>
  <g id="Layer_2" data-name="Layer 2">
    <g>
      <path class="cls-4" d="M120.91,107.83c-1.01-10.98-.96-28.07,6.02-46.99,2.37-6.42,6.96-18.49,17.92-30.73,5.58-6.23,18.44-18.78,39.18-25.25C199.54.02,213.04.58,221.16,1.6c-2.85,5.1-5.69,10.2-8.53,15.29,5.13-2.83,10.26-5.68,15.4-8.51,1.18,7.24,2.25,19.66-1.44,34.29-1.85,7.37-7.02,23.65-21.43,38.32-11.49,11.7-23.37,16.77-31.66,20.22-19.74,8.19-38.09,9.21-50.74,8.59,8.3-8.3,16.59-16.6,24.89-24.9.99.05,3.21.05,5.61-1.19,2.23-1.14,3.5-2.76,4.06-3.58.4-.81,1.01-2,1.75-3.42,2.05-3.95,3.34-6.4,4.84-8.79,1.24-1.96,3.1-4.65,5.81-7.64-2.86,2.95-5.49,4.93-7.43,6.22-1.32.89-3.75,2.26-8.52,5-1.63.93-2.99,1.71-3.93,2.24-.76.52-1.79,1.39-2.67,2.73-1.74,2.67-1.66,5.42-1.59,6.44-8.23,8.3-16.45,16.63-24.68,24.94v-.02Z"/>
      <path class="cls-5" d="M120.73,108.3c-.94-3.57-.69-7.33-.79-10.98.03-10.56,1.56-21.14,4.7-31.23C136.56,23.67,177.18-4.61,221.21,1.1l.74.1-.37.65-8.53,15.29-.67-.69,15.4-8.51.62-.34c5.03,28.19-5.32,58.48-26.81,77.46-10.56,9.49-23.69,15.53-37.06,19.93-13.82,4.39-28.45,6.07-42.92,5.24l.79-.8,24.87-24.88.02-.02.17-.17c3.68.5,7.63-1.33,9.69-4.32,3.65-6.82,7.25-14.1,12.55-19.79-2.6,2.9-5.93,5.52-9.39,7.48-3.03,1.84-7.32,4.44-10.34,6.2-2.75,1.91-4.32,5.54-3.88,8.92l.02.22-.17.17c-8.32,8.44-16.84,16.83-25.21,25.07h0ZM121.07,107.36c7.76-7.79,17.04-18.16,24.02-24.45-.21-3.68,1.52-7.43,4.64-9.42,3.05-1.66,7.43-4.15,10.49-5.9,3.54-1.87,6.68-4.63,9.5-7.32-5.42,5.74-8.86,12.92-12.27,19.95-2.12,3.25-5.95,5.25-9.85,5.15l.38-.14s-24.86,24.87-24.89,24.9l-.33-.85c17.49.89,35.16-2.06,51.29-8.87,37.45-13.79,60.05-52.57,53.44-91.95l.73.36c-.58.33-17.13,9.46-16.93,9.36l.85-1.53,8.53-15.29.37.74c-34.86-4.82-71.14,13.82-87.53,44.96-6.52,12.31-10.71,25.94-12.09,39.82-.51,5.21-.62,15.24-.38,20.47-.21,1.97-.06-1.38,0,0h.03Z"/>
    </g>
    <path class="cls-2" d="M123.83,121.99c11.14-.41,27.42.53,45.35,7.32,7.41,2.8,18.98,7.3,30.79,17.8,6.25,5.55,18.85,18.37,25.41,39.08,4.9,15.49,4.38,28.99,3.4,37.12-5.1-2.82-10.22-5.65-15.32-8.47,2.86,5.13,5.71,10.24,8.57,15.37-7.24,1.21-19.65,2.32-34.29-1.3-7.38-1.83-23.67-6.92-38.39-21.29-11.74-11.46-16.86-23.31-20.34-31.59-8.26-19.7-9.35-38.05-8.78-50.7,11.42,13.85,22.83,27.7,34.25,41.55,6.49,2.85,12.99,5.69,19.48,8.55l-8.7-19.24c-13.8-11.4-27.62-22.8-41.42-34.2h-.01Z"/>
    <path class="cls-1" d="M105.56,110.37c-11.15.35-27.41-.68-45.31-7.58-7.39-2.85-18.93-7.41-30.69-17.98-6.21-5.59-18.75-18.48-25.17-39.23C-.42,30.06.18,16.56,1.21,8.44c5.09,2.85,10.18,5.71,15.27,8.56-2.83-5.14-5.65-10.28-8.48-15.42C15.24.41,27.66-.62,42.29,3.08c7.37,1.87,23.63,7.06,38.27,21.51,11.68,11.53,16.72,23.4,20.14,31.7,8.16,19.75,9.13,38.11,8.49,50.75-11.34-13.91-22.67-27.84-34.01-41.75-6.47-2.88-12.96-5.78-19.43-8.66l8.59,19.29c13.73,11.47,27.48,22.94,41.22,34.43v.02Z"/>
    <g>
      <path class="cls-3" d="M108.68,125.22s.09-.01.1.03c1.02,10.98.99,28.02-5.92,46.87-2.36,6.43-6.91,18.5-17.85,30.77-5.57,6.24-18.39,18.83-39.12,25.35-15.44,4.86-28.9,4.35-37.04,3.36-.04,0-.06-.05-.04-.09,2.79-5.02,5.57-10.04,8.36-15.06.03-.05-.03-.11-.08-.08-5.05,2.8-10.09,5.61-15.13,8.42-.04.02-.08,0-.08-.04-1.19-7.26-2.27-19.62,1.36-34.21,1.84-7.37,6.95-23.66,21.33-38.37,11.47-11.72,23.32-16.83,31.61-20.29,19.65-8.21,37.94-9.29,50.58-8.71.05,0,.07.06.04.1-8.23,8.29-16.48,16.56-24.71,24.85,0,.01-.02.02-.04.02-1.06-.06-3.26-.01-5.58,1.21-2.39,1.24-3.59,3.26-5.14,5.76-.94,1.51-.79,1.6-2.63,5.03-.71,1.35-1.78,3.33-2.83,5.03-2.96,4.78-5.95,7.51-5.79,7.66.16.16,2.7-3.06,7.41-6.24,1.61-1.08,4.13-2.6,6.52-3.92,2.57-1.42,2.55-1.32,3.51-1.97,1.82-1.23,4.28-2.9,5.64-5.95.41-.89.96-2.45.99-4.59,0-.01,0-.03.02-.04,8.18-8.31,16.36-16.61,24.53-24.91h-.02Z"/>
      <path class="cls-5" d="M108.94,124.65c.94,3.57.71,7.31.82,10.97,0,10.56-1.51,21.14-4.63,31.25-11.81,42.45-52.37,70.83-96.41,65.21l-.73-.09.36-.64,8.5-15.31.68.68-15.38,8.56-.63.35c-5.11-28.17,5.18-58.49,26.63-77.53,10.53-9.51,23.65-15.59,37.01-20.01,13.81-4.43,28.44-6.14,42.91-5.35l-.79.8c-.22.22-24.79,24.93-24.98,25.11-4.74-.54-8.23,1.94-10.47,5.95-2.29,3.66-3.95,7.69-6.37,11.27-1.57,2.46-3.48,4.69-5.32,6.92-.05-.04,0-.02.04-.06.07-.05.14-.11.2-.17,1.88-1.94,3.85-3.82,6.04-5.42,2.34-1.71,4.81-3.2,7.32-4.63,5.01-2.59,10.11-6.14,9.95-12.38,7.96-8.71,16.97-17.06,25.27-25.47h-.01ZM84.64,150.15c.08,5.46-4.17,9.63-8.77,11.84-3.16,1.67-6.36,3.4-9.3,5.43-2.33,1.57-4.36,3.56-6.44,5.44,0,.01-.11.03-.11-.06,0-.08.05-.1.07-.14,1.91-2.16,3.8-4.34,5.31-6.8,1.89-3.06,3.57-6.25,5.1-9.51,2.45-4.96,5.56-8.81,11.6-8.71l-.38.14,24.82-24.96.33.86c-17.48-.85-35.15,2.14-51.27,9C18.19,146.56-4.31,185.39,2.38,224.75l-.73-.35c.57-.33,17.12-9.51,16.91-9.4l-.84,1.53-8.5,15.31-.38-.75c34.87,4.74,71.11-14,87.43-45.18,6.49-12.34,10.65-25.97,12-39.84,1.06-7.65.35-20.43.34-20.49,0,0-16.93,18.04-23.96,24.55h0Z"/>
    </g>
  </g>
</svg>